<svg xmlns="http://www.w3.org/2000/svg" viewBox="0 0 18 18"><defs><style>.cls-switch1{fill:#fff;opacity:0;}.cls-switch2{fill:#585c62;}</style></defs><title>language_switch</title><g id="图层_2" data-name="图层 2"><g id="图层_1-2" data-name="图层 1"><rect class="cls-switch1" width="18" height="18"/><path class="cls-switch2" d="M18,8.52A9,9,0,0,0,9,0H8.52A9,9,0,0,0,9,18h.49A9,9,0,0,0,18,8.52ZM14.58,14A7.46,7.46,0,0,1,9.4,16.49H9A7.51,7.51,0,0,1,3.42,4l.26-.25L4,4V6L6,8H7L9,9v1l1,1v2L9,14v2h1V15h1l1-2,2-2V10L12,8H9L8,7H7V6H8L9,5V3h1V2l.38-.38A7.51,7.51,0,0,1,14.58,14Z"/></g></g></svg>