<svg xmlns="http://www.w3.org/2000/svg" viewBox="0 0 32 32">
  <path class="hover-fill" fill="#b1b4bc" d="M21,13.19a5,5,0,0,0-2.94-4.45A5,5,0,1,0,21,13.3.41.41,0,0,0,21,13.19ZM16,15.9a2.6,2.6,0,1,1,2.6-2.6A2.61,2.61,0,0,1,16,15.9Z"/>
  <path class="hover-fill" fill="#b1b4bc" d="M24.53,8.85A1.06,1.06,0,0,1,24,9a1,1,0,0,1-1-1V6.71a9.56,9.56,0,0,0-3.69-2.45A9.8,9.8,0,0,0,16,3.68a9.62,9.62,0,1,0,9.61,10.1c0-.16,0-.32,0-.48A9.51,9.51,0,0,0,24.53,8.85ZM24,10a1,1,0,1,1-1,1A1,1,0,0,1,24,10ZM16,20.52A7.22,7.22,0,0,1,16,6.08a7.2,7.2,0,0,1,7.22,7.22c0,.22,0,.43,0,.64A7.22,7.22,0,0,1,16,20.52Z"/>
  <path class="hover-fill" fill="#b1b4bc" d="M20.84,21.62,20,21H12l-.84.62L6,25.44V29H26V25.44Zm-12.37,5,4.32-3.2h6.42l4.32,3.2Z"/>
  <path class="cls-3" fill="#ffbc00" d="M24,2a6,6,0,0,0-4.69,2.26A6,6,0,0,0,18,8a6.07,6.07,0,0,0,3,5.19,5.69,5.69,0,0,0,2.2.75A5.42,5.42,0,0,0,24,14a6.08,6.08,0,0,0,1.61-.22A6,6,0,0,0,24,2ZM23,5a1,1,0,0,1,2,0V8a1,1,0,0,1-.47.85A1.06,1.06,0,0,1,24,9a1,1,0,0,1-1-1Zm1,7a1,1,0,1,1,1-1A1,1,0,0,1,24,12Z"/>
</svg>
