<svg xmlns="http://www.w3.org/2000/svg" viewBox="0 0 32 32" width="32">
  <path class="hover-fill" fill="#585c62" d="M16.4,18.26,11,12.9c0,.14,0,.26,0,.4a5,5,0,0,0,5,5C16.14,18.3,16.26,18.27,16.4,18.26Z"/>
  <path class="hover-fill" fill="#585c62" d="M15.53,8.35,21,13.77A3.75,3.75,0,0,0,21,13.3a5,5,0,0,0-5-5A3.75,3.75,0,0,0,15.53,8.35Z"/>
  <path class="hover-fill" fill="#585c62" d="M16,6.08a7.22,7.22,0,0,1,6.83,9.56l1.83,1.83A9.6,9.6,0,0,0,11.83,4.64l1.83,1.83A7.22,7.22,0,0,1,16,6.08Z"/>
  <path class="hover-fill" fill="#585c62" d="M20.12,22l-1-1-.86-.85a7.12,7.12,0,0,1-2.28.37A7.22,7.22,0,0,1,8.78,13.3,7.12,7.12,0,0,1,9.15,11L7.32,9.18a9.47,9.47,0,0,0-.94,4.12,9.61,9.61,0,0,0,4.79,8.31L6,25.44V29H26V26.54a3.15,3.15,0,0,1-2.26-.94ZM17,26.6H8.47l4.32-3.2h6.42l4.32,3.2Z"/>
  <path class="hover-fill" fill="#585c62" d="M26.85,22.49l-3.28-3.27-1.71-1.71L20.25,15.9l-1.79-1.8L15.2,10.84,13.4,9.05,11.79,7.44,10.08,5.73,6.85,2.49a1.21,1.21,0,0,0-1.7,0,1.2,1.2,0,0,0,0,1.7L8.39,7.43,10.1,9.14l1.62,1.61,1.8,1.81,3.22,3.22,1.81,1.8,1.61,1.62,1.71,1.71,3.28,3.28a1.21,1.21,0,0,0,1.7,0A1.2,1.2,0,0,0,26.85,22.49Z"/>
</svg>
