<svg version="1.1" id="图层_1" xmlns="http://www.w3.org/2000/svg" xmlns:xlink="http://www.w3.org/1999/xlink" x="0px" y="0px"
	 viewBox="0 0 32 32" style="enable-background:new 0 0 32 32;" xml:space="preserve">
<path class="hover-stroke" fill="none" stroke="#585C62" stroke-width="2.4" stroke-miterlimit="10" d="M11,4.5L11,4.5c2.5,0,4.5,2,4.5,4.5l0,0c0,2.5-2,4.5-4.5,4.5l0,0c-2.5,0-4.5-2-4.5-4.5l0,0
	C6.5,6.5,8.5,4.5,11,4.5z"/>
<path class="hover-stroke" fill="none" stroke="#585C62" stroke-width="2.4" stroke-miterlimit="10" d="M17,13.5L17,13.5c2.5,0,4.5-2,4.5-4.5l0,0c0-2.5-2-4.5-4.5-4.5l0,0"/>
<path class="hover-stroke" fill="none" stroke="#585C62" stroke-width="2.4" stroke-miterlimit="10" d="M3.5,29v-7.5c0-2.2,1.8-4,4-4h8"/>
<path class="hover-stroke" fill="none" stroke="#585C62" stroke-width="2.4" stroke-miterlimit="10" d="M17,13.5h5.5c1.7,0,3,1.3,3,3l0,0"/>
</svg>
