<svg xmlns="http://www.w3.org/2000/svg" viewBox="0 0 32 32">
  <path class="hover-fill" fill="#585c62" d="M16,19.4a5.57,5.57,0,0,0,1.36-.18l-2.43-2.43a3,3,0,0,1-1.72-1.72L10.6,12.46V14A5.4,5.4,0,0,0,16,19.4Z"/>
  <path class="hover-fill" fill="#585c62" d="M16,6a3,3,0,0,1,3,3v2.81l2.39,2.39c0-.07,0-.13,0-.2V9a5.4,5.4,0,0,0-9.12-3.91L14,6.8A3,3,0,0,1,16,6Z"/>
  <path class="hover-fill" fill="#585c62" d="M21.11,23l-1.75-1.76a7.2,7.2,0,0,1-3.36.83,7.3,7.3,0,0,1-7.3-7.3,1.2,1.2,0,0,0-2.4,0A9.68,9.68,0,0,0,21.11,23Z"/>
  <path class="hover-fill" fill="#585c62" d="M25.7,14.75a1.2,1.2,0,0,0-2.4,0A7.36,7.36,0,0,1,23.19,16l1.95,2A9.54,9.54,0,0,0,25.7,14.75Z"/>
  <path class="hover-fill" fill="#585c62" d="M20.5,26.3h-9a1.2,1.2,0,1,0,0,2.4h9a1.2,1.2,0,0,0,0-2.4Z"/>
  <path class="hover-fill" fill="#585c62" d="M26.85,22.49l-2.62-2.62-1.76-1.76-1.66-1.66-1.87-1.87L13,8.67,11.1,6.74,6.85,2.49a1.21,1.21,0,0,0-1.7,0,1.2,1.2,0,0,0,0,1.7L10.6,9.64,13,12l4.53,4.52,1.73,1.73L21,20.05l1.7,1.69,2.44,2.45a1.21,1.21,0,0,0,1.7,0A1.2,1.2,0,0,0,26.85,22.49Z"/>
</svg>
