<svg xmlns="http://www.w3.org/2000/svg" viewBox="0 0 32 32">
  <path class="hover-fill" fill="#b1b4bc" d="M19.08,4.57A5.29,5.29,0,0,0,16,3.6,5.4,5.4,0,0,0,10.6,9v5a5.4,5.4,0,0,0,10.8,0V9A5.38,5.38,0,0,0,19.08,4.57ZM19,14a3,3,0,0,1-6,0V9a3,3,0,0,1,6,0Z"/>
  <path class="hover-fill" fill="#b1b4bc" d="M16,24.45a9.71,9.71,0,0,1-9.7-9.7,1.2,1.2,0,0,1,2.4,0,7.3,7.3,0,0,0,14.6,0,1.2,1.2,0,0,1,2.4,0A9.71,9.71,0,0,1,16,24.45Z"/>
  <path class="hover-fill" fill="#b1b4bc" d="M20.5,28.7h-9a1.2,1.2,0,1,1,0-2.4h9a1.2,1.2,0,0,1,0,2.4Z"/>
  <path class="cls-3" fill="#ffbc00" d="M24,2a6,6,0,0,0-4.92,2.57A6,6,0,0,0,19,11.31a6,6,0,0,0,2.4,2.1,5.91,5.91,0,0,0,2.19.57A2.75,2.75,0,0,0,24,14a6.16,6.16,0,0,0,1.3-.14A6,6,0,0,0,24,2ZM23,5a1,1,0,0,1,2,0V8a1,1,0,0,1-2,0Zm0,6a1,1,0,1,1,1,1A1,1,0,0,1,23,11Z"/>
</svg>
