<svg xmlns="http://www.w3.org/2000/svg" viewBox="0 0 18 18">
<rect class="cls-1" width="18" height="18"/>
<path class="hover-fill" fill="#0044ff" d="M9,3.4A1.6,1.6,0,0,1,10.6,5V8A1.6,1.6,0,0,1,7.4,8V5A1.6,1.6,0,0,1,9,3.4M9,2A3,3,0,0,0,6,5V8a3,3,0,0,0,6,0V5A3,3,0,0,0,9,2Z"/>
<path class="hover-stroke" fill="none" stroke="#0044ff" d="M13.75,8.25A4.75,4.75,0,0,1,9,13H9A4.75,4.75,0,0,1,4.25,8.25"/>
<line class="hover-stroke" fill="none" stroke="#0044ff" stroke-width="1.4" stroke-linecap="round" stroke-linejoin="round" x1="6.5" y1="15.5" x2="11.5" y2="15.5"/>
</svg>