<svg xmlns="http://www.w3.org/2000/svg" viewBox="0 0 18 18">
<rect class="cls-1" width="18" height="18"/>
<path class="hover-fill" fill="#737680" d="M9,1A5.9,5.9,0,0,0,5.52,2.12l1,1A4.53,4.53,0,0,1,9,2.4,4.6,4.6,0,0,1,13.6,7a4.53,4.53,0,0,1-.73,2.47l1,1A5.9,5.9,0,0,0,15,7,6,6,0,0,0,9,1Zm4.8,14.2-.6-.6H4.62l1.8-1.2h5.16l1.26.84-2.77-2.77A4.18,4.18,0,0,1,9,11.6,4.6,4.6,0,0,1,4.4,7a4.18,4.18,0,0,1,.13-1.07L3.41,4.81A6.13,6.13,0,0,0,3,7a6,6,0,0,0,2.85,5.1L3,14v2H15v-.3A1.7,1.7,0,0,1,13.8,15.2Z"/>
<path class="hover-fill" fill="#737680" d="M6,7.44A3,3,0,0,0,8.56,10ZM9,4a3,3,0,0,0-1.3.3L8.82,5.42A.55.55,0,0,1,9,5.4,1.6,1.6,0,0,1,10.6,7a.55.55,0,0,1,0,.18L11.7,8.3A3,3,0,0,0,12,7,3,3,0,0,0,9,4Z"/>
<path class="hover-fill" fill="#737680" d="M15,14.7a.74.74,0,0,1-.5-.2L3,3A.71.71,0,0,1,4,2L15.5,13.5a.72.72,0,0,1,0,1A.74.74,0,0,1,15,14.7Z"/>
</svg>