<svg xmlns="http://www.w3.org/2000/svg" viewBox="0 0 20 20" width="20">
    <path class="hover-fill" fill="#b1b4bd" d="M16,2.3H4C2.5,2.3,1.3,3.5,1.3,5v10c0,1.5,1.2,2.7,2.7,2.7h12c1.5,0,2.7-1.2,2.7-2.7V5
        C18.7,3.5,17.5,2.3,16,2.3z M2.7,15V5c0-0.7,0.6-1.3,1.3-1.3h6.3v12.6H4C3.3,16.3,2.7,15.7,2.7,15z M17.3,15
        c0,0.7-0.6,1.3-1.3,1.3h-4.3V3.7H16c0.7,0,1.3,0.6,1.3,1.3V15z"/>
    <path class="hover-fill" fill="#b1b4bd" d="M15.6,5.9h-2c-0.4,0-0.7,0.3-0.7,0.7s0.3,0.7,0.7,0.7h2c0.4,0,0.7-0.3,0.7-0.7S16,5.9,15.6,5.9z"/>
    <path class="hover-fill" fill="#b1b4bd" d="M15.6,8.7h-2c-0.4,0-0.7,0.3-0.7,0.7s0.3,0.7,0.7,0.7h2c0.4,0,0.7-0.3,0.7-0.7S16,8.7,15.6,8.7z"/>
    <path class="hover-fill" fill="#b1b4bd" d="M15.6,11.5h-2c-0.4,0-0.7,0.3-0.7,0.7s0.3,0.7,0.7,0.7h2c0.4,0,0.7-0.3,0.7-0.7S16,11.5,15.6,11.5z"/>
</svg>