<svg xmlns="http://www.w3.org/2000/svg" viewBox="0 0 18 18">
<rect class="cls-1" fill="none" width="18" height="18"/>
<path class="hover-fill" fill="#fff" d="M9,2A3,3,0,0,0,6.6,3.2l1,1A1.55,1.55,0,0,1,9,3.4,1.6,1.6,0,0,1,10.6,5V7.2L12,8.55A3.31,3.31,0,0,0,12,8V5A3,3,0,0,0,9,2ZM6,8a3,3,0,0,0,3,3A3.31,3.31,0,0,0,9.55,11L6,7.4Z"/>
<path class="hover-fill" fill="#fff" d="M10.58,12l1.05,1A5.46,5.46,0,0,1,3.55,8.25a.7.7,0,0,1,1.4,0A4.06,4.06,0,0,0,9,12.3,4.17,4.17,0,0,0,10.58,12Z"/>
<path class="hover-fill" fill="#fff" d="M14.45,8.25a5.3,5.3,0,0,1-.51,2.29L12.86,9.46a3.74,3.74,0,0,0,.19-1.21.7.7,0,1,1,1.4,0Z"/>
<path class="hover-fill" fill="#fff" d="M11.5,14.8h-5a.7.7,0,0,0,0,1.4h5a.7.7,0,0,0,0-1.4Z"/>
<path class="hover-fill" fill="#fff" d="M15,14.7a.74.74,0,0,1-.5-.2L3,3A.71.71,0,0,1,4,2L15.5,13.5a.72.72,0,0,1,0,1A.74.74,0,0,1,15,14.7Z"/>
</svg>