<svg xmlns="http://www.w3.org/2000/svg" viewBox="0 0 16 16"><defs><style>.cls-1{fill:#fff;opacity:0;}.cls-2,.cls-3{fill:none;stroke:#999;stroke-miterlimit:10;stroke-width:1.2px;}.cls-3{stroke-linecap:round;}</style></defs><title>static_file</title><g id="图层_2" data-name="图层 2"><g id="图层_1-2" data-name="图层 1"><rect class="cls-1" width="16" height="16" transform="translate(16) rotate(90)"/><path class="cls-2" d="M10.12,2.29A1,1,0,0,0,9.42,2H3.11a.6.6,0,0,0-.61.6V13.4a.6.6,0,0,0,.6.6h9.79a.6.6,0,0,0,.61-.6V6a1,1,0,0,0-.3-.71Z"/><path class="cls-2" d="M9.42,2V5a1,1,0,0,0,1,1H13.5"/><line class="cls-3" x1="5.36" y1="8.76" x2="9.86" y2="8.76"/><line class="cls-3" x1="5.36" y1="6.39" x2="7.06" y2="6.39"/><line class="cls-3" x1="5.36" y1="11.14" x2="9.86" y2="11.14"/></g></g></svg>