<svg xmlns="http://www.w3.org/2000/svg" viewBox="0 0 12 12">
<path class="font-fill" fill="#585c62" d="M9.22,7.87a2.61,2.61,0,0,1-.19,1,2.84,2.84,0,0,1-.55.84,2.75,2.75,0,0,1-.82.57,2.54,2.54,0,0,1-1,.2H3.58a.81.81,0,0,1-.8-.82V2.32a.81.81,0,0,1,.8-.82H6.05a2.54,2.54,0,0,1,1,.2,2.58,2.58,0,0,1,.81.57,2.5,2.5,0,0,1,.55.84,2.69,2.69,0,0,1,.2,1A2.51,2.51,0,0,1,8.47,5a2.91,2.91,0,0,1-.37.75,2.65,2.65,0,0,1,.82.94A2.57,2.57,0,0,1,9.22,7.87ZM7.13,4.12A1,1,0,0,0,7,3.7a1,1,0,0,0-.23-.36,1.16,1.16,0,0,0-.34-.24A1.06,1.06,0,0,0,6.05,3H4.36V5.23H6.05a1.25,1.25,0,0,0,.42-.08,1.16,1.16,0,0,0,.34-.24A1,1,0,0,0,7,4.56,1.08,1.08,0,0,0,7.13,4.12Zm.62,3.74a1.2,1.2,0,0,0-.08-.42,1.13,1.13,0,0,0-.24-.36,1,1,0,0,0-.34-.24,1,1,0,0,0-.42-.09H4.36V9H6.67a1,1,0,0,0,.42-.08,1,1,0,0,0,.34-.24,1.21,1.21,0,0,0,.24-.35A1.27,1.27,0,0,0,7.75,7.86Z"/></svg>