<svg xmlns="http://www.w3.org/2000/svg" viewBox="0 0 20 20">
  
  <path class="hover-fill" fill="#b1b4bb" fill-rule="evenodd" fill-rule="evenodd" d="M11.2,9.6V3.13a1.12,1.12,0,0,0-1-1.12A1.09,1.09,0,0,0,9,3.1V9.6a.4.4,0,0,1-.4.4h0a.4.4,0,0,1-.4-.4v-5a1.12,1.12,0,0,0-1-1.12A1.09,1.09,0,0,0,6,4.6v5.73a.26.26,0,0,1-.48.12l-.46-.86a1.1,1.1,0,0,0-1.58-.4,1.13,1.13,0,0,0-.35,1.46l.75,1.41.06.1.26.49h0c.31.58.73,1.4,1.21,2.22A6.65,6.65,0,0,0,11,18c7,0,6.2-7.1,6.2-7.1V6.13a1.12,1.12,0,0,0-1-1.12A1.09,1.09,0,0,0,15,6.1V9.6a.4.4,0,0,1-.4.4h0a.4.4,0,0,1-.4-.4V4.13a1.12,1.12,0,0,0-1-1.12A1.09,1.09,0,0,0,12,4.1V9.6a.4.4,0,0,1-.4.4h0A.4.4,0,0,1,11.2,9.6Z"/>
</svg>
